<?xml version="1.0" encoding="utf-8"?>
<svg xmlns="http://www.w3.org/2000/svg" viewBox="0 0 500 500" xmlns:bx="https://boxy-svg.com" width="500px" height="500px"><defs><bx:export><bx:file format="svg"/></bx:export></defs><g id="Layer_1" transform="matrix(1, 0, 0, 1, 53.695148, 45.817638)"><path class="cls-2" d="M 412.235 121.315 C 411.987 162.092 360.82 183.429 323.097 205.233 C 315.385 198.949 306.914 193.577 297.931 189.293 C 299.557 185.323 300.939 181.135 302.058 176.735 C 375.53 138.977 405.815 122.378 345.812 51.205 C 338.89 44.349 338.855 33.179 345.726 26.262 C 365.474 11.421 374.806 29.427 393.136 54.562 C 408.265 78.229 414.696 100.686 412.24 121.31 L 412.235 121.315 Z" style="stroke-width: 0px; fill: rgb(5, 4, 53);"/><g transform="matrix(0.506353, 0, 0, 0.506353, -56.870087, -56.293312)"><g><path class="cls-2" d="M146.94,639.17s-.02.06-.05.08c-.01-.02-.02-.03-.05-.06.03,0,.06-.01.09-.02Z" style="stroke-width: 0px; fill: rgb(5, 4, 53);"/><path class="cls-2" d="M146.84,639.19s.03.03.05.06c.02-.02.03-.05.05-.08-.03.01-.06.02-.09.02ZM143.13,646.83c.03.08.07.15.1.23.03-.08.07-.17.1-.26-.07.01-.14.01-.21.02ZM146.84,639.19s.03.03.05.06c.02-.02.03-.05.05-.08-.03.01-.06.02-.09.02Z" style="stroke-width: 0px; fill: rgb(5, 4, 53);"/></g><g><path class="cls-2" d="M143.13,646.83c.03.08.07.15.1.23.03-.08.07-.17.1-.26-.07.01-.14.01-.21.02Z" style="stroke-width: 0px; fill: rgb(5, 4, 53);"/><path class="cls-2" d="M190.51,581.73c-17.83,16.31-32.77,35.8-43.58,57.44-.03.01-.06.02-.09.02.02.02.03.03.05.06-1.23,2.49-2.42,5.01-3.56,7.55-.07.01-.14.01-.21.02.03.08.07.15.1.23-2.15,4.81-4.05,9.71-5.79,14.69-15.58-1.52-30.08-.6-44.87,2.8-4.09-14.63,2.76-32.1,20.29-37.2-2.6-14.52,6.94-30.94,24.01-33.91,5.76-24.59,39.03-30.13,53.64-11.71Z" style="stroke-width: 0px; fill: rgb(5, 4, 53);"/></g></g><g transform="matrix(0.506353, 0, 0, 0.506353, -56.870087, -56.293312)"><path class="cls-2" d="M787.25,572.09v.07s-.02-.03-.05-.06c.02,0,.03,0,.05-.01Z" style="stroke-width: 0px;"/><path class="cls-2" d="M787.2,572.11s.03.03.05.06v-.07s-.02.01-.05.01ZM787.2,572.11s.03.03.05.06v-.07s-.02.01-.05.01ZM787.2,572.11s.03.03.05.06v-.07s-.02.01-.05.01ZM787.2,572.11s.03.03.05.06v-.07s-.02.01-.05.01ZM787.2,572.11s.03.03.05.06v-.07s-.02.01-.05.01ZM787.2,572.11s.03.03.05.06v-.07s-.02.01-.05.01ZM787.2,572.11s.03.03.05.06v-.07s-.02.01-.05.01ZM787.2,572.11s.03.03.05.06v-.07s-.02.01-.05.01Z" style="stroke-width: 0px;"/><path class="cls-2" d="M867.29,612.46c-15.01-1.4-30.13-.67-45.09,2.11-12.18-31.81-31.73-60.65-56.23-84.27,12.72-10.98,42.06-3.2,46.16,15.26,14.62-2.77,33.44,9.1,34.69,23.91,20.79,3.89,28.44,27,20.48,42.98Z" style="stroke-width: 0px; fill: rgb(5, 4, 53);"/></g><path class="cls-1" d="M 74.852 59.666 C 74.852 59.666 74.883 59.636 74.893 59.621 C 74.868 59.616 74.858 59.631 74.852 59.666 Z" style="fill: rgb(186, 155, 201); stroke-width: 0px;"/><path class="cls-2" d="M 351.179 129.741 C 328.039 117.072 311.8 117.932 294.675 121.487 C 293.961 118.596 293.187 115.689 292.361 112.768 C 304.605 106.595 315.35 103.441 334.89 104.646 C 337.148 104.858 339.163 103.193 339.371 100.929 C 339.138 88.878 294.989 101.02 289.946 104.388 C 282.037 77.829 272.264 50.821 273.495 29.863 C 262.973 38.977 242.131 58.517 235.478 75.546 C 234.921 76.969 233.366 77.733 231.898 77.293 C 200.387 66.811 124.617 79.49 98.241 99.658 C 88.58 102.772 74.569 61.246 74.847 59.672 C 57.915 79.521 49.717 119.376 51.53 154.628 C 35.413 152.846 17.154 153.995 1.543 160.502 C -2.473 162.178 -0.974 168.522 3.259 168.37 C 18.86 161.322 36.689 161.661 52.213 163.58 C 52.512 166.482 52.882 169.332 53.332 172.122 C 50.031 171.236 4.11 195.227 21.883 200.215 C 36.071 188.781 43.292 184.325 54.933 180.472 C 58.249 195.81 64.077 206.271 72.169 217.633 C 98.241 206.909 128.344 206.018 154.79 218.281 C 187.972 180.194 245.787 166.74 292.214 186.751 C 299.941 168.163 301.491 150.81 296.488 129.33 C 313.679 125.472 333.573 128.495 349.088 137.422 C 353.129 137.579 354.784 131.71 351.179 129.751 L 351.179 129.741 Z" style="stroke-width: 0px; fill: rgb(5, 4, 53);"/><path class="cls-1" d="M 341.731 233.396 C 341.731 233.396 341.746 233.411 341.756 233.426 L 341.756 233.391 C 341.756 233.391 341.746 233.396 341.731 233.396 L 341.731 233.396 Z" style="fill: rgb(186, 155, 201); stroke-width: 0px;"/><path class="cls-3" d="M 363.048 266.015 C 359.321 266.633 355.569 267.57 351.792 268.856 C 345.23 246.181 331.234 225.907 312.438 211.689 L 312.433 211.689 C 266.38 174.715 191.597 185.723 157.95 232.94 C 106.388 202.483 33.904 234.186 20.89 292.042 C -23.618 278.988 -68.688 328.656 -48.905 372.876 L 436.91 372.876 C 467.205 320.995 419.344 256.673 363.048 266.015 L 363.048 266.015 Z" style="stroke-width: 0px; fill: rgb(64, 86, 181);"/><g transform="matrix(0.506353, 0, 0, 0.506353, -56.870087, -56.293312)"><g><path class="cls-4" d="M420.89,827.31c-10.45,0-43.04-27.29-107.67-84.62-15.45-13.71-31.43-27.88-34.07-29.39l-.62-.3-.43-.41c-9.22-8.17-12.24-19.61-8.08-30.59,1.25-3.29,3.06-6.3,5.29-8.9l-45.66,12.97c-2.52.72-5.12,1.08-7.73,1.08-12.55,0-23.71-8.44-27.15-20.53-4.26-14.98,4.47-30.63,19.44-34.89,8.73-2.48,115.26-32.75,120.63-34.28l.68-.19h.02c1.09-.31,3.4-.97,5.22-1.48,1.31-.37,2.09-.6,2.61-.73h0s111.11-31.57,111.11-31.57c2.61-.83,5.28-1.25,7.95-1.25,10.03,0,19.76,6.14,24.8,15.65,4.89,9.24,4.46,19.68-1.15,27.95h0c-.24.38-1.72,2.66-2.89,4.49-.83,1.29-1.52,2.35-1.58,2.44l-.04-.03c-.45.8-1.05,1.72-1.79,2.87l-81.25,125.8,41.84,35.86c8.93,7.17,12.12,19.18,8.12,30.62-4.05,11.58-14.04,19.08-25.48,19.14-.6.18-1.29.29-2.08.29h0ZM305.83,664.43c3.16,1.16,6.2,2.93,9.03,5.28l40.36,34.6,42.65-66.02-92.04,26.15Z" style="fill: rgb(255, 255, 255); stroke-width: 0px;"/><path class="cls-2" d="M462.43,567.23c16.84,0,29.83,20.6,19.51,35.79-.14.2-4.36,6.74-4.5,6.95,0,0-3.76,5.83-3.76,5.83l-81.74,126.55,45.22,38.75c16.28,12.98,5.87,40.91-14.31,40.91-.27,0-.55,0-.83-.02-.28.21-.65.31-1.12.31-15.42,0-131.47-109.58-139.46-113.46-18.08-16.02-3.31-41.06,15.32-41.06,4.88,0,10.03,1.72,14.92,5.77l44.65,38.27,52.95-81.98-180.98,51.42c-2.12.6-4.26.89-6.36.89-10.12,0-19.44-6.67-22.34-16.89-3.51-12.35,3.66-25.2,16-28.71,8.47-2.4,115.14-32.71,120.63-34.28h0s8.49-2.42,8.51-2.42c0,0,111.18-31.58,111.18-31.58,2.2-.71,4.39-1.03,6.51-1.03M462.43,557.23h0c-3.16,0-6.31.49-9.39,1.45l-55.45,15.75-38.22,10.86-12.6,3.58-3.53,1-.93.26c-.14.04-.28.08-.42.13-.61.17-1.42.4-2.56.72-1.49.43-3.3.94-4.48,1.28h-.02l-1.35.38c-5.76,1.65-112.14,31.87-120.61,34.27-17.64,5.02-27.9,23.44-22.89,41.07,4.05,14.23,17.19,24.16,31.96,24.16,3.07,0,6.13-.43,9.1-1.27l33.96-9.65c-4.38,12.69-.76,25.75,9.8,35.1l1.03.91.89.43c3.35,2.28,18.52,15.74,33.2,28.76,18.97,16.83,42.58,37.77,62.75,54.51,34.91,28.96,42.73,31.36,48.23,31.36.95,0,1.87-.1,2.76-.3,13.31-.34,24.84-9.09,29.53-22.48,4.7-13.44.92-27.59-9.64-36.12l-38.46-32.97,77-119.21,1.88-2.92,1.29-2.01.43-.66s.06-.09.09-.14c.11-.17.76-1.18,1.55-2.39,1.15-1.78,2.61-4.04,2.91-4.49,6.66-9.82,7.19-22.18,1.43-33.08-5.98-11.3-17.18-18.31-29.21-18.31h0ZM318.32,666.08l68.15-19.36-32.34,50.06-35.82-30.7h0Z" style="stroke-width: 0px;"/></g><g><path class="cls-4" d="M661.04,836.05c-7.71,0-14.91-3.07-20.29-8.64-5.37-5.57-8.18-12.87-7.91-20.57l3.04-90.56c-20.41,17.59-44.43,38.21-65.3,55.23-38.54,31.44-46.03,34.07-50.04,34.07-.74,0-1.45-.11-2.11-.33-.15,0-.3,0-.46,0-12.73,0-26.53-15.85-37.62-28.58-4.09-4.7-7.95-9.14-10.48-11.2l-.28-.23-.25-.27c-8-8.76-10-19.66-5.48-29.91,4.69-10.65,15.35-17.8,26.52-17.8,7.38,0,14.3,3.09,20.01,8.92l11.32,11.98,75.39-63.24c-66.29,4-93.77,5.65-94.85,5.65h-.16c-17.59-.07-27.21-13.84-27.63-27.43-.42-13.59,8.41-27.92,26.09-29.01,13.1-.77,38.02-2.28,63.94-3.86,28.69-1.74,58.26-3.53,74.75-4.5.33-9.29.8-23.75,1.29-38.93.69-21,1.39-42.71,1.77-52.4.15-16.89,15-27.34,28.7-27.34,5.8,0,11.29,1.8,15.87,5.21,13.29,7.88,12.21,25.98,11.41,39.21-.19,3.11-.36,6.05-.34,8.48v.22s-2.1,62.13-2.1,62.13l58.24-3.5c.58-.04,1.15-.05,1.72-.05,14.94,0,27.3,11.67,28.16,26.56l.02.34-.03.33c-2.32,30.09-23.82,30.46-53.58,30.98-10.76.18-22.82.39-36.43,1.81-.51,15.73-1.35,40.33-2.2,65.26-.97,28.55-1.98,58.07-2.51,74.65-.51,15.31-12.9,27.3-28.2,27.3h-.04Z" style="fill: rgb(255, 255, 255); stroke-width: 0px;"/><path class="cls-2" d="M671.03,502.12c4.55,0,9.14,1.36,13.1,4.39,13.68,7.83,8.71,30.72,8.84,43.58l-2.28,67.62s63.73-3.83,63.73-3.83c.48-.03.95-.04,1.42-.04,12.28,0,22.47,9.68,23.17,21.84-2.76,35.73-35.02,22.08-89.88,28.68-1.01,31.38-3.81,111.9-4.85,144.24-.42,12.56-10.74,22.46-23.21,22.46-.01,0-.03,0-.04,0-13.09,0-23.66-10.94-23.2-24.03l3.43-101.98c-42.67,36.79-110.63,95.55-120.71,95.55-.49,0-.85-.14-1.06-.43-.5.07-1,.11-1.51.11-14.95,0-35.43-30.9-44.94-38.65-15.68-17.15-.31-39.34,17.35-39.34,5.55,0,11.33,2.19,16.43,7.42l14.5,15.34,90.6-76c-56.66,3.42-108.53,6.55-109.67,6.55,0,0-.01,0-.01,0-29.35,0-30.91-44.63-1.37-46.45,28.93-1.7,115.64-7.03,143.22-8.62.69-18.73,2.54-78.14,3.23-95.94.08-13.17,11.8-22.46,23.7-22.46M671.03,492.12c-8.32,0-16.69,3.22-22.96,8.84-6.83,6.12-10.64,14.41-10.74,23.37-.38,9.71-1.08,31.29-1.76,52.17-.42,12.96-.83,25.4-1.14,34.56-16.96,1.01-43.75,2.63-69.81,4.21-26.32,1.6-51.17,3.1-64.32,3.88-20.88,1.28-31.3,18.15-30.81,34.15.49,15.95,11.78,32.1,32.43,32.28h.02s.33,0,.33,0c1.06,0,14.58-.8,80.03-4.75l-60.17,50.47-8.03-8.49-.06-.06-.06-.06c-6.67-6.82-14.82-10.43-23.58-10.43-13.12,0-25.61,8.35-31.09,20.78-5.28,11.97-2.9,25.17,6.37,35.3l.49.54.57.46c2.19,1.79,6.1,6.27,9.87,10.61,12.3,14.13,26.24,30.14,41.17,30.3.89.21,1.83.32,2.79.32,5.7,0,13.23-2.59,53.19-35.19,18.03-14.71,38.4-32.09,56.76-47.88l-2.66,79.17c-.32,9.05,2.99,17.65,9.31,24.2,6.33,6.56,14.81,10.17,23.88,10.17,8.69,0,16.88-3.31,23.11-9.33,6.25-6.03,9.84-14.13,10.13-22.8.53-16.61,1.54-46.16,2.51-74.73.79-23.14,1.54-45.22,2.05-60.8,11.65-1.02,22.17-1.2,31.66-1.37,15.84-.27,28.36-.49,38.3-4.52,12.35-5.01,18.95-15.17,20.18-31.07l.05-.67-.04-.67c-1-17.54-15.56-31.27-33.15-31.27-.67,0-1.35.02-2.03.06l-52.76,3.17,1.91-56.64v-.22s0-.22,0-.22c-.02-2.25.15-5.1.33-8.13.82-13.65,2.06-34.19-13.63-43.68-5.41-3.96-11.84-6.05-18.65-6.05h0Z" style="stroke-width: 0px;"/></g></g><circle class="cls-4" cx="221.826" cy="128.384" r="15.322" style="fill: rgb(255, 255, 255); stroke-width: 0px;"/><circle class="cls-4" cx="119.381" cy="146.663" r="15.322" style="fill: rgb(255, 255, 255); stroke-width: 0px;"/><path class="cls-5" d="M 151.155 159.388 C 153.56 164.198 159.104 166.578 164.148 165.033 C 168.999 163.55 172.229 158.79 171.814 153.635 C 174.341 159.261 180.716 161.965 186.189 160.026 C 191.146 158.269 194.337 153.068 193.643 147.564" style="fill: none; stroke: rgb(255, 255, 255); stroke-linecap: round; stroke-linejoin: round; stroke-width: 11px;"/></g></svg>